<?xml version="1.0" encoding="utf-8"?>
<!-- Generator: Adobe Illustrator 28.1.0, SVG Export Plug-In . SVG Version: 6.00 Build 0)  -->
<svg version="1.1" id="图层_1" xmlns="http://www.w3.org/2000/svg" xmlns:xlink="http://www.w3.org/1999/xlink" x="0px" y="0px"
	 viewBox="0 0 612 130.5" style="enable-background:new 0 0 612 130.5;" xml:space="preserve">
<style type="text/css">
	.st0{fill:#737373;}
	.st1{fill:#F24F21;}
	.st2{fill:#80BA00;}
	.st3{fill:#00A3F0;}
	.st4{fill:#FFBA00;}
</style>
<g>
	<g>
		<path class="st0" d="M585.4,59.1h-19.7v45.3h-13.4V59.1h-9.4V48.3h9.4v-7.8c0-5.9,1.9-10.7,5.8-14.5c3.8-3.8,8.8-5.7,14.8-5.7
			c1.6,0,3,0.1,4.3,0.2c1.2,0.2,2.3,0.4,3.3,0.7v11.4c-0.4-0.3-1.2-0.6-2.3-0.9c-1.1-0.4-2.4-0.5-3.8-0.5c-2.8,0-4.9,0.9-6.4,2.6
			c-1.5,1.7-2.2,4.3-2.2,7.7v6.8h19.7V35.7l13.3-4v16.7H612v10.8h-13.4v26.3c0,3.5,0.6,5.9,1.9,7.3c1.3,1.4,3.2,2.1,5.9,2.1
			c0.8,0,1.7-0.2,2.8-0.5c1.1-0.4,2-0.8,2.8-1.3v10.9c-0.8,0.5-2.2,0.9-4.2,1.3c-1.9,0.4-3.9,0.6-5.8,0.6c-5.6,0-9.7-1.5-12.5-4.5
			c-2.8-3-4.2-7.4-4.2-13.4V59.1z M497.6,76.7c0,5.9,1.3,10.3,4,13.4c2.7,3.1,6.5,4.6,11.4,4.6c4.8,0,8.5-1.5,11-4.6
			c2.5-3.1,3.8-7.7,3.8-13.8c0-6-1.3-10.6-3.9-13.7c-2.6-3.1-6.3-4.6-10.9-4.6c-4.8,0-8.6,1.6-11.3,4.8
			C499,66.1,497.6,70.7,497.6,76.7 M483.9,77.2c0-9.3,2.6-16.6,7.9-22.1c5.2-5.4,12.5-8.1,21.8-8.1c8.8,0,15.6,2.6,20.6,7.8
			c4.9,5.2,7.4,12.3,7.4,21.2c0,9.1-2.6,16.3-7.9,21.7c-5.2,5.4-12.4,8.1-21.4,8.1c-8.7,0-15.6-2.6-20.7-7.7
			C486.4,93,483.9,86,483.9,77.2 M454.1,63c0,1.9,0.6,3.4,1.8,4.5c1.2,1.1,3.9,2.4,8,4.1c5.3,2.1,9,4.5,11.1,7.1
			c2.1,2.6,3.2,5.8,3.2,9.6c0,5.3-2,9.5-6.1,12.7c-4.1,3.2-9.6,4.8-16.5,4.8c-2.3,0-4.9-0.3-7.7-0.8c-2.8-0.6-5.2-1.3-7.2-2.2v-13
			c2.4,1.7,5,3,7.8,4c2.8,1,5.3,1.5,7.5,1.5c3,0,5.2-0.4,6.6-1.3c1.4-0.8,2.1-2.2,2.1-4.2c0-1.8-0.7-3.4-2.2-4.6
			c-1.5-1.3-4.3-2.7-8.4-4.3c-4.9-2-8.3-4.3-10.4-6.9c-2-2.5-3.1-5.8-3.1-9.7c0-5.1,2-9.2,6-12.5c4-3.3,9.2-4.9,15.7-4.9
			c2,0,4.2,0.2,6.6,0.7c2.4,0.4,4.5,1,6.1,1.7v12.6c-1.7-1.2-3.8-2.2-6.1-3c-2.3-0.8-4.6-1.3-6.9-1.3c-2.5,0-4.5,0.5-5.9,1.5
			C454.8,60,454.1,61.3,454.1,63 M390.5,76.7c0,5.9,1.3,10.3,4,13.4c2.7,3.1,6.5,4.6,11.4,4.6c4.8,0,8.5-1.5,11-4.6
			c2.5-3.1,3.8-7.7,3.8-13.8c0-6-1.3-10.6-3.9-13.7c-2.6-3.1-6.2-4.6-10.9-4.6c-4.8,0-8.6,1.6-11.3,4.8
			C391.9,66.1,390.5,70.7,390.5,76.7 M376.8,77.2c0-9.3,2.6-16.6,7.9-22.1c5.2-5.4,12.5-8.1,21.8-8.1c8.8,0,15.6,2.6,20.6,7.8
			c4.9,5.2,7.4,12.3,7.4,21.2c0,9.1-2.6,16.3-7.9,21.7c-5.2,5.4-12.4,8.1-21.4,8.1c-8.7,0-15.6-2.6-20.7-7.7
			C379.3,93,376.8,86,376.8,77.2 M371.1,47.3c1.1,0,2,0.1,2.8,0.2s1.5,0.3,2.1,0.5v13.4c-0.7-0.5-1.7-1-3-1.4
			c-1.3-0.5-2.9-0.7-4.8-0.7c-3.2,0-6,1.4-8.2,4.1c-2.2,2.7-3.4,6.9-3.4,12.6v28.3h-13.2V48.3h13.2v8.8h0.2c1.2-3.1,3-5.4,5.5-7.2
			C364.7,48.2,367.7,47.3,371.1,47.3 M320.4,94.8c2,0,4.1-0.5,6.5-1.4c2.4-0.9,4.5-2.1,6.6-3.6v12.3c-2.1,1.2-4.5,2.1-7.2,2.7
			c-2.7,0.6-5.6,0.9-8.8,0.9c-8.3,0-15-2.6-20.1-7.8c-5.2-5.2-7.8-11.9-7.8-20c0-9,2.6-16.5,7.9-22.3c5.3-5.8,12.8-8.8,22.4-8.8
			c2.5,0,5,0.3,7.5,1c2.5,0.6,4.5,1.4,6,2.2v12.7c-2-1.5-4.1-2.7-6.2-3.5c-2.1-0.8-4.3-1.2-6.5-1.2c-5.2,0-9.4,1.7-12.6,5.1
			c-3.2,3.4-4.8,8-4.8,13.7c0,5.7,1.5,10.1,4.6,13.3C311,93.2,315.1,94.8,320.4,94.8 M280.3,104.4h-13.2V48.3h13.2V104.4z
			 M265.8,32.1c0-2.2,0.8-4,2.4-5.5c1.6-1.5,3.5-2.2,5.7-2.2c2.3,0,4.3,0.8,5.8,2.3c1.5,1.5,2.3,3.3,2.3,5.4c0,2.1-0.8,3.9-2.4,5.4
			c-1.6,1.5-3.5,2.2-5.7,2.2c-2.3,0-4.2-0.7-5.7-2.2C266.5,36,265.8,34.2,265.8,32.1 M254.4,26.1v78.3h-13.6V43h-0.2l-24.3,61.4h-9
			L182.4,43h-0.2v61.4h-12.6V26.1h19.5l22.5,58h0.3l23.7-58H254.4z"/>
	</g>
	<rect class="st1" width="62" height="62"/>
	<rect x="68.5" class="st2" width="62" height="62"/>
	<rect y="68.5" class="st3" width="62" height="62"/>
	<rect x="68.5" y="68.5" class="st4" width="62" height="62"/>
</g>
</svg>
